Control Set_states
version=1
nRows=34
nColumns=17
inDegrees=yes

# SIMM Motion File Header:
name Control Set_states
datacolumns 17
datarows 34
otherdata 1
range 0.00000000 0.04202290
endheader
time	/jointset/r_shoulder/r_shoulder_elev/value	/jointset/r_shoulder/r_shoulder_elev/speed	/jointset/r_elbow/r_elbow_flex/value	/jointset/r_elbow/r_elbow_flex/speed	/forceset/TRIlong/activation	/forceset/TRIlong/fiber_length	/forceset/TRIlat/activation	/forceset/TRIlat/fiber_length	/forceset/TRImed/activation	/forceset/TRImed/fiber_length	/forceset/BIClong/activation	/forceset/BIClong/fiber_length	/forceset/BICshort/activation	/forceset/BICshort/fiber_length	/forceset/BRA/activation	/forceset/BRA/fiber_length
      0.00000000	     -0.03394443	     -0.27330620	     -0.05463477	      9.12204733	      0.05000000	      0.10000000	      0.05000000	      0.10000000	      0.05000000	      0.10000000	      0.05000000	      0.10000000	      0.05000000	      0.10000000	      0.05000000	      0.10000000
      0.00001360	     -0.03394833	     -0.30530413	     -0.05451695	      8.31078862	      0.04999023	      0.11170252	      0.04999023	      0.09999555	      0.04999023	      0.09999555	      0.04999023	      0.10714486	      0.04999023	      0.11118176	      0.04999023	      0.09998512
      0.00003172	     -0.03395443	     -0.37004509	     -0.05437085	      7.90579054	      0.04997721	      0.12104915	      0.04997721	      0.09998962	      0.04997721	      0.09998962	      0.04997721	      0.11491707	      0.04997721	      0.12156014	      0.04997721	      0.09996531
      0.00005573	     -0.03396439	     -0.45702449	     -0.05418155	      7.92618264	      0.04995996	      0.12784925	      0.04995996	      0.09998177	      0.04995996	      0.09998177	      0.04995996	      0.12298159	      0.04995996	      0.13059690	      0.04995996	      0.09993912
      0.00007975	     -0.03397625	     -0.52784171	     -0.05398836	      8.18162314	      0.04994272	      0.13137519	      0.04994272	      0.09997391	      0.04994272	      0.09997391	      0.04994272	      0.12915189	      0.04994272	      0.13633504	      0.04994272	      0.09991298
      0.00011000	     -0.03399323	     -0.58988895	     -0.05373516	      8.55502851	      0.04992101	      0.13354103	      0.04992101	      0.09996401	      0.04992101	      0.09996401	      0.04992101	      0.13490815	      0.04992101	      0.14071503	      0.04992101	      0.09988015
      0.00014025	     -0.03401170	     -0.62763872	     -0.05347138	      8.87022407	      0.04989931	      0.13450682	      0.04989931	      0.09995412	      0.04989931	      0.09995412	      0.04989931	      0.13897619	      0.04989931	      0.14320079	      0.04989931	      0.09984741
      0.00018324	     -0.03403934	     -0.65427547	     -0.05308295	      9.17180720	      0.04986849	      0.13506642	      0.04986849	      0.09994006	      0.04986849	      0.09994006	      0.04986849	      0.14271686	      0.04986849	      0.14499210	      0.04986849	      0.09980104
      0.00022623	     -0.03406770	     -0.66321655	     -0.05268487	      9.32975909	      0.04983769	      0.13533088	      0.04983769	      0.09992600	      0.04983769	      0.09992600	      0.04983769	      0.14488987	      0.04983769	      0.14578376	      0.04983769	      0.09975485
      0.00027803	     -0.03410218	     -0.66773477	     -0.05219883	      9.42583298	      0.04980061	      0.13550753	      0.04980061	      0.09990906	      0.04980061	      0.09990906	      0.04980061	      0.14630145	      0.04980061	      0.14623211	      0.04980061	      0.09969946
      0.00038382	     -0.03417326	     -0.67595478	     -0.05119651	      9.51012820	      0.04972499	      0.13567622	      0.04972499	      0.09987447	      0.04972499	      0.09987447	      0.04972499	      0.14737702	      0.04972499	      0.14663287	      0.04972499	      0.09958715
      0.00048961	     -0.03424516	     -0.68327658	     -0.05018808	      9.55194605	      0.04964949	      0.13574366	      0.04964949	      0.09983989	      0.04964949	      0.09983989	      0.04964949	      0.14771777	      0.04964949	      0.14679541	      0.04964949	      0.09947595
      0.00069533	     -0.03438702	     -0.69564988	     -0.04821718	      9.60624370	      0.04950304	      0.13579057	      0.04950304	      0.09977265	      0.04950304	      0.09977265	      0.04950304	      0.14790756	      0.04950304	      0.14690479	      0.04950304	      0.09926274
      0.00090105	     -0.03453133	     -0.70726802	     -0.04623603	      9.65394816	      0.04935708	      0.13581598	      0.04935708	      0.09970545	      0.04935708	      0.09970545	      0.04935708	      0.14794789	      0.04935708	      0.14694093	      0.04935708	      0.09905345
      0.00138664	     -0.03488130	     -0.73407469	     -0.04152022	      9.77039116	      0.04901448	      0.13585628	      0.04901448	      0.09954691	      0.04901448	      0.09954691	      0.04901448	      0.14799055	      0.04901448	      0.14698941	      0.04901448	      0.09857419
      0.00252331	     -0.03575078	     -0.79557560	     -0.03024973	     10.06466499	      0.04822295	      0.13591605	      0.04822295	      0.09917636	      0.04822295	      0.09917636	      0.04822295	      0.14804393	      0.04822295	      0.14705564	      0.04822295	      0.09752569
      0.00583707	     -0.03867816	     -0.97026578	      0.00465964	     11.02427137	      0.04599626	      0.13601770	      0.04599626	      0.09810039	      0.04599626	      0.09810039	      0.04599626	      0.14812242	      0.04599626	      0.14716071	      0.04599626	      0.09493220
      0.00648099	     -0.03931370	     -1.00366484	      0.01182196	     11.22214351	      0.04557711	      0.13603256	      0.04557711	      0.09789203	      0.04557711	      0.09789203	      0.04557711	      0.14813276	      0.04557711	      0.14717529	      0.04557711	      0.09449209
      0.00692999	     -0.03976955	     -1.02686720	      0.01689196	     11.36180344	      0.04528737	      0.13604241	      0.04528737	      0.09774688	      0.04528737	      0.09774688	      0.04528737	      0.14813943	      0.04528737	      0.14718481	      0.04528737	      0.09419549
      0.00731945	     -0.04017338	     -1.04693865	      0.02134066	     11.48399248	      0.04503772	      0.13605064	      0.04503772	      0.09762106	      0.04503772	      0.09762106	      0.04503772	      0.14814491	      0.04503772	      0.14719270	      0.04503772	      0.09394470
      0.00766884	     -0.04054271	     -1.07308860	      0.02537346	     11.61809652	      0.04481506	      0.13605781	      0.04481506	      0.09750827	      0.04481506	      0.09750827	      0.04481506	      0.14814961	      0.04481506	      0.14719951	      0.04481506	      0.09373677
      0.00801823	     -0.04093021	     -1.15390948	      0.02947944	     11.91131890	      0.04459364	      0.13606480	      0.04459364	      0.09739553	      0.04459364	      0.09739553	      0.04459364	      0.14815411	      0.04459364	      0.14720609	      0.04459364	      0.09361375
      0.00836761	     -0.04135413	     -1.27859343	      0.03371168	     12.33233178	      0.04437344	      0.13607162	      0.04437344	      0.09728287	      0.04437344	      0.09728287	      0.04437344	      0.14815844	      0.04437344	      0.14721245	      0.04437344	      0.09355090
      0.00896221	     -0.04219312	     -1.55494635	      0.04130321	     13.23631747	      0.04400148	      0.13608289	      0.04400148	      0.09709128	      0.04400148	      0.09709128	      0.04400148	      0.14816544	      0.04400148	      0.14722284	      0.04400148	      0.09348877
      0.01004922	     -0.04421926	     -2.19728686	      0.05676914	     15.29112332	      0.04333046	      0.13610255	      0.04333046	      0.09674151	      0.04333046	      0.09674151	      0.04333046	      0.14817719	      0.04333046	      0.14724053	      0.04333046	      0.09342573
      0.01188428	     -0.04942761	     -3.51548715	      0.08854655	     19.45013909	      0.04222338	      0.13613371	      0.04222338	      0.09615245	      0.04222338	      0.09615245	      0.04222338	      0.14819454	      0.04222338	      0.14726726	      0.04222338	      0.09337200
      0.01371934	     -0.05720883	     -4.98061007	      0.12841465	     24.04834863	      0.04114768	      0.13616322	      0.04114768	      0.09556509	      0.04114768	      0.09556509	      0.04114768	      0.14820945	      0.04114768	      0.14729080	      0.04114768	      0.09334349
      0.01602343	     -0.07088295	     -6.89481251	      0.19071967	     30.05367996	      0.03983985	      0.13619908	      0.03983985	      0.09482995	      0.03983985	      0.09482995	      0.03983985	      0.14822549	      0.03983985	      0.14731671	      0.03983985	      0.09332133
      0.01832753	     -0.08898172	     -8.81116568	      0.26691968	     36.07966634	      0.03857788	      0.13623451	      0.03857788	      0.09409733	      0.03857788	      0.09409733	      0.03857788	      0.14823915	      0.03857788	      0.14733919	      0.03857788	      0.09330441
      0.02156823	     -0.12181539	    -11.43405779	      0.39734791	     44.36537074	      0.03687694	      0.13628494	      0.03687694	      0.09307102	      0.03687694	      0.09307102	      0.03687694	      0.14825509	      0.03687694	      0.14736583	      0.03687694	      0.09328091
      0.02480893	     -0.16295848	    -13.93600129	      0.55410860	     52.32060787	      0.03525810	      0.13633718	      0.03525810	      0.09204930	      0.03525810	      0.09204930	      0.03525810	      0.14826780	      0.03525810	      0.14738733	      0.03525810	      0.09325313
      0.02951953	     -0.23673787	    -17.34464768	      0.82661029	     63.25458350	      0.03304210	      0.13641786	      0.03304210	      0.09057189	      0.03304210	      0.09057189	      0.03304210	      0.14828126	      0.03304210	      0.14741035	      0.03304210	      0.09320152
      0.03577122	     -0.35832431	    -21.48413201	      1.26469207	     76.70579542	      0.03033229	      0.13653551	      0.03033229	      0.08862432	      0.03033229	      0.08862432	      0.03033229	      0.14829076	      0.03033229	      0.14742713	      0.03033229	      0.09311143
      0.04202290	     -0.50456621	    -25.24205631	      1.78350847	     89.11091272	      0.02786161	      0.13666629	      0.02786161	      0.08669056	      0.02786161	      0.08669056	      0.02786161	      0.14829027	      0.02786161	      0.14742833	      0.02786161	      0.09299816
